Simulation
nRows=40
nColumns=15
endheader
time  TH_x TH_y TH_z SC_y  SC_z  SC_x  AC_y  AC_z  AC_x  GH_y  GH_z  GH_yy  EL_x  PS_y
1.25  0.000000  0.000000  0.000000  -34.89086746382411  5.812545723828763  7.948437425990338  72.1143160613282  24.789950637112817  2.0582648748186627  -8.776359875038272  63.03060618074163  -12.86280984703161  23.65706035233034  120.000000
1.2750000000000001  0.000000  0.000000  0.000000  -35.14730601434079  5.9167972210845825  8.26467144847008  72.29258050413006  24.855816871016835  2.236586816282105  -8.909899236093967  63.32294171814944  -13.474184915409616  23.59103518774622  120.000000
1.3  0.000000  0.000000  0.000000  -35.40071645603248  6.0137911602947725  8.571205641225923  72.45374636169812  24.91694653853113  2.4013871779743905  -9.015632676426073  63.555096355795364  -14.039511417288754  23.547428648765624  120.000000
1.3250000000000002  0.000000  0.000000  0.000000  -35.64462123668128  6.101547999765781  8.864392970073503  72.59107992069877  24.97036426043661  2.546817146957591  -9.088979062310292  63.731655538871074  -14.543955204123202  23.52042429461503  120.000000
1.35  0.000000  0.000000  0.000000  -35.871844984086465  6.178260526941774  9.13959426935654  72.69967590116775  25.012535878904107  2.6676272853947465  -9.127543670857396  63.857329744985094  -14.975866018558444  23.504075511685297  120.000000
1.375  0.000000  0.000000  0.000000  -36.075085116830735  6.242317317737136  9.391457378297812  72.77682924651636  25.039719837396248  2.7594566707075074  -9.131198181955314  63.93693690646034  -15.327771544543658  23.492653984589943  120.000000
1.4000000000000001  0.000000  0.000000  0.000000  -36.247522041715406  6.292305896225794  9.614276860204262  72.82205392841122  25.048444790222845  2.81897420864271  -9.101552337795471  63.974861905940145  -15.596530974146154  23.481152050794634  120.000000
1.425  0.000000  0.000000  0.000000  -36.383551755466605  6.326997661269038  9.80241996668567  72.83669351931302  25.03604361273047  2.8438170986283384  -9.041123139096491  63.97435254153794  -15.78309660536937  23.465721557597178  120.000000
1.4500000000000002  0.000000  0.000000  0.000000  -36.47945382818892  6.345176817296859  9.95093594749594  72.8234031762049  25.00120764629711  2.832594436459627  -8.952629818607129  63.9366077604469  -15.89212738918983  23.444164529861453  120.000000
1.475  0.000000  0.000000  0.000000  -36.533791640880104  6.345566334570162  10.056035076857892  72.78568960659892  24.944378012795205  2.7847706519269164  -8.838381026603614  63.86010743045414  -15.931490260250607  23.41620563683666  120.000000
1.5  0.000000  0.000000  0.000000  -36.54745649724811  6.3267784116474965  10.115441453932851  72.7275510980557  24.86782283701132  2.7007402494736508  -8.69997369835236  63.74036912292157  -15.911476041557354  23.38356879822873  120.000000
1.5250000000000001  0.000000  0.000000  0.000000  -36.52334630017859  6.287494842714397  10.128286089637257  72.6532426214361  24.775277808717796  2.581834980897786  -8.538098101134182  63.570510270683144  -15.843591564473162  23.349612072916006  120.000000
1.55  0.000000  0.000000  0.000000  -36.46577451663596  6.226739010124359  10.09481845939766  72.56710674348341  24.671335810717384  2.4304409643077287  -8.352600994800323  63.34217861200621  -15.739104408454654  23.318770885504225  120.000000
1.5750000000000002  0.000000  0.000000  0.000000  -36.379887110389525  6.144140308784353  10.015887636689667  72.47341649256595  24.560725776399078  2.249949370180019  -8.14255431884384  63.046803375639904  -15.607524505227866  23.295828900031022  120.000000
1.6  0.000000  0.000000  0.000000  -36.27109914771154  6.040152330059098  9.892497095458612  72.37621070392356  24.447697449679765  2.0446688555418238  -7.906509798120993  62.676617872403035  -15.455424937091506  23.285263795106317  120.000000
1.625  0.000000  0.000000  0.000000  -36.144686579919274  5.91599419549958  9.725373486632257  72.27917053066611  24.335556011224412  1.8195602296847468  -7.642711188147655  62.225600521258535  -15.285831378446458  23.290676443022765  120.000000
1.6500000000000001  0.000000  0.000000  0.000000  -36.0054169086214  5.773431384867248  9.514848954761412  72.18560004278626  24.226532084295158  1.579972533262021  -7.349522956644178  61.68997656630915  -15.09859022300694  23.314462535904756  120.000000
1.675  0.000000  0.000000  0.000000  -35.85725214187881  5.614437820985744  9.260845770354283  72.09848135517298  24.121865944210505  1.3311336892248646  -7.025853364042018  61.068586917330975  -14.891359659901484  23.357499822450517  120.000000
1.7000000000000002  0.000000  0.000000  0.000000  -35.70321777182462  5.440719938572454  8.962937570199148  72.0204774823685  24.02191807697793  1.077832393502678  -6.6716395637146055  60.3629509000184  -14.660960133918376  23.419004610420966  120.000000
1.725  0.000000  0.000000  0.000000  -35.54527294072049  5.2533777610369325  8.620309762304611  71.95387368478829  23.926267029068544  0.8239730514560746  -6.288075080219208  59.57731996423467  -14.404456350179002  23.49635304682848  120.000000
1.75  0.000000  0.000000  0.000000  -35.38425957029977  5.052745366437773  8.231823223005128  71.90045141911624  23.833814526958033  0.5724889704374686  -5.877728181456009  58.718434185232  -14.119967571936792  23.58512199678986  120.000000
1.7750000000000001  0.000000  0.000000  0.000000  -35.21995136469188  4.838404864104073  7.796125651874602  71.86119718097592  23.74287718136197  0.3252921473882745  -5.444236458025939  57.795201096742204  -13.806564830559351  23.67933232045732  120.000000
1.8  0.000000  0.000000  0.000000  -35.05121003147791  4.609514768331258  7.311930174965016  71.83591003933309  23.651295575717363  0.08357112245246796  -4.991842603069644  56.81799046887492  -13.463682652261065  23.772019649098006  120.000000
1.8250000000000002  0.000000  0.000000  0.000000  -34.876215847839525  4.365132437994622  6.778428533398031  71.8227188162168  23.55656426392618  -0.15200269235959968  -4.524633109509039  55.79797191071459  -13.089909241763857  23.85594940659769  120.000000
1.85  0.000000  0.000000  0.000000  -34.69271792375078  4.104768709454771  6.195788451540519  71.81768474858357  23.4559700027118  -0.38093648890994986  -4.045910900063612  54.746242345952446  -12.682027859266983  23.92440096027376  120.000000
1.875  0.000000  0.000000  0.000000  -34.498380307452464  3.8286246690561625  5.565646102666806  71.81460493389359  23.346709844664975  -0.6028125065437874  -3.557640320425273  53.67322728067878  -12.23427236164381  23.97183818290742  120.000000
1.9000000000000001  0.000000  0.000000  0.000000  -34.291088246623175  3.5379213109869254  4.891404044144876  71.80534153845919  23.22599093959127  -0.8170714614058148  -3.0604225097465023  52.58807660353829  -11.738806134018978  23.994374415048345  120.000000
1.925  0.000000  0.000000  0.000000  -34.06926037253179  3.2346881498540263  4.178369566089084  71.78073533142397  23.091165130329173  -1.0230205575309594  -2.553802106645807  51.49851381780355  -11.187022429140251  23.989949233919734  120.000000
1.9500000000000002  0.000000  0.000000  0.000000  -33.83215144936392  2.921724946547155  3.433631500938511  71.73193401130618  22.939903413730093  -1.2196979671274102  -2.037042827063626  50.41065790602835  -10.571878369678085  23.95838855189973  120.000000
1.975  0.000000  0.000000  0.000000  -33.58022249172568  2.6020835422950617  2.6658371193750394  71.65181058937202  22.770444921988283  -1.4060451171672312  -1.509902552418536  49.32922013632312  -9.89011354960616  23.901351243552316  120.000000
2.0  0.000000  0.000000  0.000000  -33.31541319647832  2.278952132244094  1.884825834641819  71.53607605108155  22.581823776705665  -1.5808312892659855  -0.9734370570152191  48.25762525597749  -9.144291631123039  23.8222518321864  120.000000
2.025  0.000000  0.000000  0.000000  -33.04122248870885  1.9554512866415696  1.1011323228443368  71.38377586714545  22.373848494785722  -1.7431979140981682  -0.4302270039331915  47.19848632658005  -8.343159866365921  23.72598382511103  120.000000
2.0500000000000003  0.000000  0.000000  0.000000  -32.76232536582195  1.6345438583556107  0.32509761611213306  71.19677644981674  22.14664711021727  -1.8924460016080764  0.11589788620062536  46.15369961003583  -7.50065798756754  23.618517767865384  120.000000
2.075  0.000000  0.000000  0.000000  -32.48375626047703  1.3184934544771223  -0.4342322743741993  70.97886061517912  21.900544592742197  -2.0281169122409226  0.6609180613766257  45.12498775794954  -6.633119541211093  23.50646095147739  120.000000
2.1  0.000000  0.000000  0.000000  -32.20946750322857  1.0097875439355053  -1.169620699471866  70.73498020111502  21.6355859295806  -2.1497461625329874  1.201717092691375  44.11414929409992  -5.756554143831044  23.39661093445048  120.000000
2.125  0.000000  0.000000  0.000000  -31.94186646186147  0.7104229533843576  -1.874992881466051  70.46958974193934  21.351688696102517  -2.2573742236211736  1.736585411822345  43.12379623890343  -4.883702035948741  23.295285816518266  120.000000
2.15  0.000000  0.000000  0.000000  -31.68158799560893  0.422936930379122  -2.545043773628748  70.18507589916514  21.04887938340949  -2.351699877816293  2.2647830930762205  42.15727981208045  -4.022845409719872  23.207644275373152  120.000000
2.1750000000000003  0.000000  0.000000  0.000000  -31.42811267874769  0.14983758760356872  -3.1748816736951255  69.88155863290012  20.72757255848882  -2.43479300478641  2.786404846627798  41.218598146607036  -3.1773419754860344  23.137374062353473  120.000000
2.2  0.000000  0.000000  0.000000  -31.179478095223253  -0.1058873451883312  -3.7599895831735104  69.55744347368889  20.38842723798057  -2.50926506042266  3.302054959860816  40.31137754929217  -2.3471339255722663  23.086950359112706  120.000000
2.225  0.000000  0.000000  0.000000  -30.932190107197766  -0.3419109661676346  -4.296155127933995  69.2115695092652  20.032719767794894  -2.5780137663827007  3.8134211106480915  39.43858340253955  -1.5299804485875184  23.058167406237935  120.000000
